:SAMPLES-PER-SECOND 30
:FULLY-SPECIFIED
:DEGREES
87
root  35.0280972 36.51934947 -14.71409535 11.40097427 8.189846992 3.795659542
lowerback  -8.438280106 2.384829998 2.817729712
upperback  -4.458499908 2.585220098 -4.245570183
thorax  0.4277659953 1.026340008 -5.777279854
lowerneck  -15.36439991 -2.605429888 -0.2418799996
upperneck  11.71210003 -4.509870052 5.857769966
head  6.225399971 -1.785300016 1.459710002
lclavicle  0 -4.497500157e-015 -2.743230041e-014
lhumerus  -43.33539963 26.98060036 68.91619873
lradius  -0.08969475329 -6.507048965e-006 26.42110062
lwrist  4.824992743e-007 -3.790274832e-007 -33.13850021
lhand  -3.515251585e-031 -36.94120026 -10.68400002
lfingers  90 7.125020027 -90
lthumb  94.83727264 -25.51818085 101.1138916
rclavicle  0 -4.497500157e-015 -2.743230041e-014
rhumerus  41.47060013 -3.650409222 -54.99610138
rradius  -5.16745672e-007 2.214343908e-008 73.19819641
rwrist  1.380293725e-006 2.528095422e-007 -171.1790009
rhand  -3.088187502e-031 3.391360044 -6.624070168
rfingers  -90 -7.125020027 -90
rthumb  -84.85067749 -9.259195328 -60.74824142
rfemur  -14.11225891 11.90449333 14.20013237
rtibia  -2.073559523 1.803696871 22.6972065
rfoot  -1.846599698 -16.08263969 -42.92526627
rtoes  4.128229618 19.56479073 -102.1505661
lfemur  -12.23554325 -20.40607834 -18.28107834
ltibia  2.832107544 2.238339424 15.34228039
lfoot  0.6263278127 -29.68479538 30.607584
ltoes  -8.582267761 -18.13350868 -115.8691483
88
root  35.02719609 36.51870367 -14.71398121 11.43900967 8.396203041 3.848938465
lowerback  -8.422039986 2.433010101 2.892650127
upperback  -4.472469807 2.6442101 -4.279650211
thorax  0.4161019921 1.053920031 -5.851260185
lowerneck  -15.32120037 -2.712539911 -0.3281530142
upperneck  11.69659996 -4.652180195 5.955049992
head  6.222370148 -1.852640033 1.490699887
lclavicle  0 -4.497500157e-015 -2.743230041e-014
lhumerus  -43.37239838 27.03590012 68.82579803
lradius  -0.0901754126 -6.507048965e-006 26.39659882
lwrist  4.824992743e-007 -3.790274832e-007 -33.32799911
lhand  -3.510899298e-031 -36.94120026 -10.73639965
lfingers  90 7.125020027 -90
lthumb  94.8484726 -25.56959915 101.1187134
rclavicle  0 -4.497500157e-015 -2.743230041e-014
rhumerus  42.43980026 -3.974219084 -54.70470047
rradius  -5.16745672e-007 2.214343908e-008 72.18160248
rwrist  1.380293725e-006 2.528095422e-007 -171.0740051
rhand  -3.070083237e-031 3.665920019 -6.891389847
rfingers  -90 -7.125020027 -90
rthumb  -84.91905975 -9.042098045 -60.50128174
rfemur  -14.15415573 11.85980225 14.20546722
rtibia  -2.129350662 1.843429208 22.7922039
rfoot  -1.887843847 -15.95386219 -43.00794601
rtoes  4.161547184 19.56548309 -102.2499695
lfemur  -12.23766041 -20.46840096 -18.3285141
ltibia  2.889989853 2.262961388 15.2674799
lfoot  0.6080766916 -29.69368935 30.45919609
ltoes  -8.535409927 -18.15502739 -115.7186813
89
root  35.02612978 36.51763435 -14.71785147 11.46287823 8.589158058 3.878305912
lowerback  -8.464618683 2.458389997 2.855989218
upperback  -4.471560001 2.680500031 -4.27466011
thorax  0.443174988 1.073459983 -5.820159912
lowerneck  -15.29349995 -2.812489986 -0.4503040016
upperneck  11.67749977 -4.776070118 6.053870201
head  6.221250057 -1.911839843 1.529739857
lclavicle  0 -4.497500157e-015 -2.743230041e-014
lhumerus  -43.4211998 27.18050003 68.74250031
lradius  -0.09065286815 -6.507048965e-006 26.40010262
lwrist  4.824992743e-007 -3.790274832e-007 -33.53440094
lhand  -3.514383687e-031 -36.98939896 -10.68760014
lfingers  90 7.125020027 -90
lthumb  94.86070251 -25.52003098 101.1658859
rclavicle  0 -4.497500157e-015 -2.743230041e-014
rhumerus  43.54309845 -4.181670666 -54.62929916
rradius  -5.16745672e-007 2.214343908e-008 71.07479858
rwrist  1.380293725e-006 2.528095422e-007 -170.5079956
rhand  -3.068465064e-031 3.95517993 -6.913129807
rfingers  -90 -7.125020027 -90
rthumb  -84.86206818 -9.040447235 -60.22064209
rfemur  -14.18036079 11.75809383 14.22729492
rtibia  -2.173783064 1.851973295 22.85651207
rfoot  -1.933372378 -15.90807152 -43.08612442
rtoes  4.173820496 19.56622124 -102.2865906
lfemur  -12.29241467 -20.59801292 -18.31621361
ltibia  2.899487257 2.283921957 15.28431225
lfoot  0.6167254448 -29.73827362 30.40342522
ltoes  -8.551943779 -18.1474514 -115.7717514
90
root  35.02466097 36.51315884 -14.72115554 11.47039032 8.812515259 3.90446806
lowerback  -8.511659622 2.484440088 2.849150181
upperback  -4.487979889 2.712179899 -4.304699898
thorax  0.4569390118 1.087800026 -5.843850136
lowerneck  -15.24400043 -2.927659988 -0.5151839852
upperneck  11.63930035 -4.923749447 6.104670048
head  6.208769798 -1.984689832 1.542109966
lclavicle  0 -4.497500157e-015 -2.743230041e-014
lhumerus  -43.43709946 27.30190086 68.59970093
lradius  -0.09112753719 -6.507048965e-006 26.31679916
lwrist  4.824992743e-007 -3.790274832e-007 -33.74029922
lhand  -3.512139749e-031 -36.95709991 -10.71920013
lfingers  90 7.125020027 -90
lthumb  94.85256958 -25.55221176 101.1341019
rclavicle  0 -4.497500157e-015 -2.743230041e-014
rhumerus  44.54270554 -4.461181164 -54.57160187
rradius  -5.16745672e-007 2.214343908e-008 69.98190308
rwrist  1.380293725e-006 2.528095422e-007 -170.2380066
rhand  -3.069653889e-031 3.751100063 -6.897109985
rfingers  -90 -7.125020027 -90
rthumb  -84.90198517 -9.042194366 -60.41862488
rfemur  -14.1708746 11.6738987 14.25571537
rtibia  -2.210512638 1.870113134 22.90179634
rfoot  -1.978985071 -15.8516531 -43.20394516
rtoes  4.170663357 19.56699181 -102.2771759
lfemur  -12.30250931 -20.70730209 -18.31433868
ltibia  2.926249981 2.31580019 15.26999187
lfoot  0.634978354 -29.79723167 30.34746742
ltoes  -8.508677483 -18.16723824 -115.6329193
